<?xml version="1.0" encoding="UTF-8"?>
<svg xmlns="http://www.w3.org/2000/svg" xmlns:xlink="http://www.w3.org/1999/xlink" width="24px" height="24px" viewBox="0 0 24 24" version="1.1">
<g id="surface1">
<path style=" stroke:none;fill-rule:nonzero;fill:rgb(0%,11.764706%,21.176471%);fill-opacity:1;" d="M 1.5 9.101562 C 1.5 6.441406 1.5 5.109375 2.019531 4.09375 C 2.472656 3.199219 3.199219 2.472656 4.09375 2.019531 C 5.109375 1.5 6.441406 1.5 9.101562 1.5 L 14.898438 1.5 C 17.558594 1.5 18.890625 1.5 19.90625 2.019531 C 20.800781 2.472656 21.527344 3.199219 21.980469 4.09375 C 22.5 5.109375 22.5 6.441406 22.5 9.101562 L 22.5 14.898438 C 22.5 17.558594 22.5 18.890625 21.980469 19.90625 C 21.527344 20.800781 20.800781 21.527344 19.90625 21.980469 C 18.890625 22.5 17.558594 22.5 14.898438 22.5 L 9.101562 22.5 C 6.441406 22.5 5.109375 22.5 4.09375 21.980469 C 3.199219 21.527344 2.472656 20.800781 2.019531 19.90625 C 1.5 18.890625 1.5 17.558594 1.5 14.898438 Z M 1.5 9.101562 "/>
<path style=" stroke:none;fill-rule:nonzero;fill:rgb(19.215687%,65.882355%,100%);fill-opacity:1;" d="M 12.527344 16.964844 L 6.976562 16.964844 C 6.882812 16.964844 6.835938 16.910156 6.835938 16.804688 L 6.835938 7.632812 C 6.828125 7.554688 6.890625 7.492188 6.964844 7.5 L 8.683594 7.5 C 8.738281 7.492188 8.789062 7.546875 8.78125 7.601562 L 8.78125 15.144531 L 12.824219 15.144531 C 12.910156 15.144531 12.941406 15.1875 12.921875 15.273438 L 12.667969 16.835938 C 12.667969 16.914062 12.601562 16.964844 12.527344 16.964844 Z M 12.527344 16.964844 "/>
<path style=" stroke:none;fill-rule:nonzero;fill:rgb(19.215687%,65.882355%,100%);fill-opacity:1;" d="M 13.9375 9.773438 L 15.472656 9.773438 C 15.558594 9.773438 15.636719 9.835938 15.65625 9.917969 C 15.769531 10.175781 15.785156 10.484375 15.785156 10.761719 C 16.046875 10.445312 16.367188 10.183594 16.722656 9.988281 C 17.101562 9.765625 17.535156 9.652344 17.972656 9.664062 C 18.046875 9.652344 18.113281 9.71875 18.101562 9.792969 L 18.101562 11.539062 C 18.101562 11.609375 18.054688 11.640625 17.960938 11.640625 C 17.308594 11.597656 16.296875 11.753906 15.824219 12.277344 L 15.824219 16.824219 C 15.824219 16.910156 15.789062 16.953125 15.714844 16.953125 L 14.066406 16.953125 C 13.984375 16.964844 13.914062 16.890625 13.925781 16.808594 L 13.925781 11.871094 C 13.925781 11.210938 13.9375 10.53125 13.839844 9.875 C 13.824219 9.816406 13.882812 9.757812 13.9375 9.773438 Z M 13.9375 9.773438 "/>
</g>
</svg>
