<?xml version="1.0" encoding="UTF-8"?>
<svg xmlns="http://www.w3.org/2000/svg" xmlns:xlink="http://www.w3.org/1999/xlink" width="24px" height="24px" viewBox="0 0 24 24" version="1.1">
<g id="surface1">
<path style=" stroke:none;fill-rule:nonzero;fill:rgb(0%,0%,0%);fill-opacity:1;" d="M 12 0 C 5.371094 0 0 5.371094 0 12 C 0 18.628906 5.371094 24 12 24 C 18.628906 24 24 18.628906 24 12 C 24 5.371094 18.628906 0 12 0 Z M 6.960938 7.679688 C 7.714844 7.679688 8.300781 8.230469 8.367188 8.878906 C 8.4375 9.464844 8.195312 9.976562 7.546875 10.285156 C 7.203125 10.457031 7.066406 10.457031 6.996094 10.355469 C 6.960938 10.285156 6.996094 10.21875 7.066406 10.148438 C 7.683594 9.636719 7.683594 9.222656 7.613281 8.640625 C 7.578125 8.261719 7.304688 8.023438 7.03125 8.023438 C 5.828125 8.023438 4.117188 10.695312 4.355469 12.652344 C 4.460938 13.40625 4.90625 14.296875 5.863281 14.296875 C 6.171875 14.296875 6.515625 14.195312 6.824219 14.058594 C 7.324219 13.792969 7.625 13.589844 7.921875 13.257812 C 7.847656 12.371094 8.625 11.210938 9.773438 11.210938 C 10.289062 11.210938 10.699219 11.417969 10.734375 11.796875 C 10.800781 12.308594 10.355469 12.378906 10.21875 12.378906 C 10.082031 12.378906 9.839844 12.34375 9.839844 12.207031 C 9.808594 12.070312 10.148438 12.136719 10.117188 11.828125 C 10.082031 11.621094 9.875 11.554688 9.671875 11.554688 C 8.949219 11.554688 8.539062 12.550781 8.640625 13.164062 C 8.675781 13.441406 8.8125 13.714844 9.089844 13.714844 C 9.292969 13.714844 9.601562 13.40625 9.703125 12.960938 C 9.773438 12.652344 10.046875 12.445312 10.289062 12.445312 C 10.390625 12.445312 10.457031 12.480469 10.492188 12.617188 L 10.492188 12.753906 C 10.460938 12.890625 10.355469 13.304688 10.390625 13.40625 C 10.390625 13.476562 10.425781 13.578125 10.5625 13.578125 C 10.652344 13.578125 10.996094 13.398438 11.339844 13.117188 C 11.453125 12.527344 11.589844 11.820312 11.589844 11.761719 C 11.625 11.519531 11.726562 11.28125 12.207031 11.28125 C 12.308594 11.28125 12.378906 11.316406 12.414062 11.453125 L 12.414062 11.589844 L 12.273438 12.207031 C 12.722656 11.625 13.375 11.214844 13.785156 11.214844 C 13.957031 11.214844 14.09375 11.316406 14.09375 11.488281 C 14.09375 11.589844 14.09375 11.761719 14.019531 11.933594 C 13.886719 12.308594 13.714844 12.894531 13.609375 13.40625 C 13.609375 13.542969 13.644531 13.679688 13.816406 13.679688 C 13.988281 13.679688 14.503906 13.476562 14.914062 12.925781 L 14.921875 12.921875 C 14.921875 12.855469 14.914062 12.789062 14.914062 12.722656 C 14.914062 12.308594 14.949219 11.972656 15.019531 11.726562 C 15.085938 11.453125 15.429688 11.214844 15.636719 11.214844 C 15.738281 11.214844 15.84375 11.28125 15.84375 11.382812 C 15.84375 11.417969 15.84375 11.488281 15.808594 11.523438 C 15.667969 11.972656 15.5625 12.378906 15.5625 12.789062 C 15.5625 13.03125 15.601562 13.371094 15.667969 13.578125 C 15.667969 13.613281 15.699219 13.648438 15.734375 13.648438 C 15.808594 13.648438 16.285156 13.203125 16.625 12.617188 C 16.316406 12.414062 16.144531 12.070312 16.144531 11.660156 C 16.144531 10.9375 16.597656 10.5625 17.007812 10.5625 C 17.351562 10.5625 17.625 10.800781 17.625 11.28125 C 17.625 11.589844 17.523438 11.933594 17.351562 12.242188 L 17.453125 12.242188 C 17.671875 12.25 17.886719 12.160156 18.035156 12.003906 C 18.070312 11.949219 18.117188 11.910156 18.171875 11.886719 C 18.507812 11.460938 19 11.148438 19.582031 11.148438 C 20.0625 11.148438 20.503906 11.351562 20.539062 11.726562 C 20.609375 12.242188 20.160156 12.347656 20.023438 12.347656 C 19.886719 12.347656 19.644531 12.308594 19.644531 12.175781 C 19.644531 12.039062 19.953125 12.105469 19.921875 11.800781 C 19.886719 11.59375 19.679688 11.523438 19.472656 11.523438 C 18.789062 11.523438 18.34375 12.414062 18.441406 13.136719 C 18.476562 13.410156 18.613281 13.71875 18.890625 13.71875 C 19.097656 13.71875 19.40625 13.410156 19.542969 12.964844 C 19.605469 12.691406 19.886719 12.449219 20.125 12.449219 C 20.226562 12.449219 20.296875 12.484375 20.332031 12.621094 C 20.332031 12.691406 20.332031 12.828125 20.191406 13.273438 C 20.019531 13.582031 20.019531 13.753906 20.058594 13.890625 C 20.089844 14.164062 20.226562 14.371094 20.367188 14.472656 C 20.394531 14.507812 20.433594 14.574219 20.433594 14.574219 C 20.433594 14.644531 20.394531 14.714844 20.296875 14.714844 C 20.257812 14.714844 20.226562 14.714844 20.191406 14.679688 C 19.679688 14.472656 19.472656 14.128906 19.402344 13.785156 C 19.195312 14.027344 18.960938 14.164062 18.683594 14.164062 C 18.234375 14.164062 17.792969 13.753906 17.726562 13.238281 C 17.703125 13.019531 17.726562 12.796875 17.800781 12.589844 C 17.597656 12.71875 17.375 12.792969 17.175781 12.792969 L 17.007812 12.792969 C 16.558594 13.445312 16.078125 13.890625 15.738281 14.09375 C 15.621094 14.15625 15.492188 14.191406 15.359375 14.199219 C 15.292969 14.199219 15.1875 14.164062 15.15625 14.09375 C 15.058594 13.941406 15 13.703125 14.960938 13.429688 C 14.480469 13.953125 13.8125 14.234375 13.507812 14.234375 C 13.164062 14.234375 12.960938 14.027344 12.925781 13.683594 L 12.925781 13.308594 C 13.027344 12.554688 13.304688 12.105469 13.304688 11.96875 C 13.300781 11.933594 13.269531 11.902344 13.230469 11.898438 C 12.996094 11.898438 12.207031 12.722656 12.066406 13.273438 L 11.964844 13.71875 C 11.898438 14.027344 11.589844 14.234375 11.382812 14.234375 C 11.277344 14.234375 11.210938 14.199219 11.179688 14.0625 L 11.179688 13.925781 L 11.222656 13.691406 C 10.785156 14 10.351562 14.199219 10.144531 14.199219 C 9.835938 14.199219 9.664062 14.027344 9.636719 13.785156 C 9.429688 14.0625 9.1875 14.199219 8.882812 14.199219 C 8.523438 14.199219 8.183594 13.957031 8.019531 13.605469 C 7.773438 13.882812 7.492188 14.160156 7.167969 14.371094 C 6.6875 14.679688 6.140625 14.917969 5.484375 14.917969 C 4.902344 14.917969 4.390625 14.609375 4.117188 14.335938 C 3.703125 13.957031 3.464844 13.375 3.429688 12.828125 C 3.226562 11.148438 4.253906 8.988281 5.824219 8.027344 C 6.203125 7.820312 6.585938 7.683594 6.960938 7.683594 Z M 16.730469 10.972656 C 16.628906 10.972656 16.558594 11.144531 16.558594 11.3125 C 16.558594 11.589844 16.695312 11.898438 16.867188 12.070312 C 16.9375 11.882812 16.96875 11.683594 16.972656 11.484375 C 16.972656 11.144531 16.835938 10.972656 16.730469 10.972656 Z M 16.730469 10.972656 "/>
</g>
</svg>
