<?xml version="1.0" encoding="UTF-8"?>
<svg xmlns="http://www.w3.org/2000/svg" xmlns:xlink="http://www.w3.org/1999/xlink" width="24px" height="24px" viewBox="0 0 24 24" version="1.1">
<g id="surface1">
<path style=" stroke:none;fill-rule:nonzero;fill:rgb(0%,11.764706%,21.176471%);fill-opacity:1;" d="M 1.5 9.101562 C 1.5 6.441406 1.5 5.109375 2.019531 4.09375 C 2.472656 3.199219 3.199219 2.472656 4.09375 2.019531 C 5.109375 1.5 6.441406 1.5 9.101562 1.5 L 14.898438 1.5 C 17.558594 1.5 18.890625 1.5 19.90625 2.019531 C 20.800781 2.472656 21.527344 3.199219 21.980469 4.09375 C 22.5 5.109375 22.5 6.441406 22.5 9.101562 L 22.5 14.898438 C 22.5 17.558594 22.5 18.890625 21.980469 19.90625 C 21.527344 20.800781 20.800781 21.527344 19.90625 21.980469 C 18.890625 22.5 17.558594 22.5 14.898438 22.5 L 9.101562 22.5 C 6.441406 22.5 5.109375 22.5 4.09375 21.980469 C 3.199219 21.527344 2.472656 20.800781 2.019531 19.90625 C 1.5 18.890625 1.5 17.558594 1.5 14.898438 Z M 1.5 9.101562 "/>
<path style=" stroke:none;fill-rule:nonzero;fill:rgb(19.215687%,65.882355%,100%);fill-opacity:1;" d="M 6 16.886719 L 6 7.652344 C 6 7.589844 6.027344 7.554688 6.085938 7.554688 C 6.992188 7.554688 7.894531 7.5 8.800781 7.5 C 10.269531 7.5 11.855469 8 12.414062 9.539062 C 12.546875 9.914062 12.613281 10.300781 12.613281 10.703125 C 12.613281 11.476562 12.441406 12.113281 12.089844 12.617188 C 11.113281 14.019531 9.417969 13.996094 7.898438 13.996094 L 7.898438 16.878906 C 7.910156 16.964844 7.839844 17.003906 7.765625 17.003906 L 6.105469 17.003906 C 6.035156 17.003906 6 16.96875 6 16.886719 Z M 7.90625 9.285156 L 7.90625 12.300781 C 8.511719 12.34375 9.140625 12.351562 9.71875 12.15625 C 10.359375 11.972656 10.707031 11.421875 10.707031 10.757812 C 10.726562 10.191406 10.417969 9.652344 9.894531 9.449219 C 9.320312 9.210938 8.523438 9.195312 7.90625 9.285156 Z M 7.90625 9.285156 "/>
<path style=" stroke:none;fill-rule:nonzero;fill:rgb(19.215687%,65.882355%,100%);fill-opacity:1;" d="M 18.074219 11.707031 C 17.808594 11.566406 17.527344 11.464844 17.234375 11.402344 C 16.859375 11.3125 15.382812 11.003906 15.382812 11.777344 C 15.394531 12.210938 16.078125 12.421875 16.382812 12.542969 C 17.445312 12.90625 18.644531 13.558594 18.621094 14.871094 C 18.65625 16.5 17.074219 17.152344 15.71875 17.152344 C 15.015625 17.160156 14.28125 17.050781 13.636719 16.75 C 13.574219 16.714844 13.535156 16.644531 13.535156 16.574219 L 13.535156 15.015625 C 13.53125 14.953125 13.597656 14.898438 13.648438 14.941406 C 14.28125 15.324219 15.03125 15.511719 15.761719 15.519531 C 16.085938 15.519531 16.726562 15.488281 16.71875 15.015625 C 16.71875 14.558594 15.953125 14.351562 15.648438 14.234375 C 15.207031 14.074219 14.789062 13.855469 14.402344 13.582031 C 13.863281 13.199219 13.527344 12.585938 13.535156 11.90625 C 13.53125 10.371094 14.988281 9.683594 16.296875 9.683594 C 16.910156 9.675781 17.566406 9.722656 18.136719 9.972656 C 18.21875 9.996094 18.234375 10.082031 18.234375 10.160156 L 18.234375 11.617188 C 18.242188 11.710938 18.140625 11.742188 18.074219 11.707031 Z M 18.074219 11.707031 "/>
</g>
</svg>
